<?xml version="1.0" encoding="utf-8"?>
<!-- Generator: Adobe Illustrator 22.1.0, SVG Export Plug-In . SVG Version: 6.00 Build 0)  -->
<svg version="1.1" id="图层_1" xmlns="http://www.w3.org/2000/svg" xmlns:xlink="http://www.w3.org/1999/xlink" x="0px" y="0px"
	 viewBox="0 0 347.5 115" style="enable-background:new 0 0 347.5 115;" xml:space="preserve">
<style type="text/css">
	.st0{fill:url(#SVGID_1_);}
	.st1{fill:url(#SVGID_2_);}
	.st2{fill:url(#SVGID_3_);}
	.st3{fill:url(#SVGID_4_);}
	.st4{fill:url(#SVGID_5_);}
	.st5{fill:url(#SVGID_6_);}
	.st6{fill:url(#SVGID_7_);}
</style>
<g>
	<linearGradient id="SVGID_1_" gradientUnits="userSpaceOnUse" x1="8.7578" y1="51.4566" x2="365.7578" y2="142.4566">
		<stop  offset="0" style="stop-color:#FEDF97"/>
		<stop  offset="1" style="stop-color:#C4934E"/>
	</linearGradient>
	<polygon class="st0" points="0.1,11.2 18.5,11.2 18.5,113.6 29.2,113.6 29.2,11.2 47.6,11.2 47.6,1.7 0.1,1.7 	"/>
	<linearGradient id="SVGID_2_" gradientUnits="userSpaceOnUse" x1="11.6015" y1="40.3006" x2="368.6015" y2="131.3006">
		<stop  offset="0" style="stop-color:#FEDF97"/>
		<stop  offset="1" style="stop-color:#C4934E"/>
	</linearGradient>
	<path class="st1" d="M62,1.7l-5.3,4.7v102.4l5.3,4.7h35.3l5.3-4.7V6.4l-5.3-4.7H62z M92,104.1H67.3v-93H92V104.1z"/>
	<linearGradient id="SVGID_3_" gradientUnits="userSpaceOnUse" x1="14.7985" y1="27.7586" x2="371.7985" y2="118.7586">
		<stop  offset="0" style="stop-color:#FEDF97"/>
		<stop  offset="1" style="stop-color:#C4934E"/>
	</linearGradient>
	<path class="st2" d="M112.9,1.7v111.9h10.6V68h27.6l5.3-4.7V6.4l-5.3-4.7H112.9z M145.9,58.5h-22.3V11.2h22.3V58.5z"/>
	<linearGradient id="SVGID_4_" gradientUnits="userSpaceOnUse" x1="13.6649" y1="67.2904" x2="353.5397" y2="153.9252">
		<stop  offset="0" style="stop-color:#FEDF97"/>
		<stop  offset="1" style="stop-color:#C4934E"/>
	</linearGradient>
	<rect x="167.3" y="101.4" class="st3" width="11.8" height="13.2"/>
	<linearGradient id="SVGID_5_" gradientUnits="userSpaceOnUse" x1="19.8047" y1="8.119" x2="376.8047" y2="99.119">
		<stop  offset="0" style="stop-color:#FEDF97"/>
		<stop  offset="1" style="stop-color:#C4934E"/>
	</linearGradient>
	<path class="st4" d="M196.5,1.7l-5.3,4.7v102.4l5.3,4.7h35.3l5.3-4.7V6.4l-5.3-4.7H196.5z M226.5,104.1h-24.7v-93h24.7V104.1z"/>
	<linearGradient id="SVGID_6_" gradientUnits="userSpaceOnUse" x1="23.3405" y1="-5.7522" x2="380.3405" y2="85.2478">
		<stop  offset="0" style="stop-color:#FEDF97"/>
		<stop  offset="1" style="stop-color:#C4934E"/>
	</linearGradient>
	<polygon class="st5" points="285.1,80.5 258.9,0.4 248.5,1.7 248.5,113.6 259.1,113.6 259.1,34.8 285.4,114.9 295.7,113.6 
		295.7,1.7 285.1,1.7 	"/>
	<linearGradient id="SVGID_7_" gradientUnits="userSpaceOnUse" x1="26.8798" y1="-19.6373" x2="383.8798" y2="71.3627">
		<stop  offset="0" style="stop-color:#FEDF97"/>
		<stop  offset="1" style="stop-color:#C4934E"/>
	</linearGradient>
	<polygon class="st6" points="347.5,11.2 347.5,1.7 312.7,1.7 307.4,6.4 307.4,108.9 312.7,113.6 347.5,113.6 347.5,104.1 
		318.1,104.1 318.1,62.3 347.5,62.3 347.5,52.9 318.1,52.9 318.1,11.2 	"/>
</g>
</svg>
